<svg xmlns="http://www.w3.org/2000/svg" width="148.105" height="74.02" viewBox="0 0 148.105 74.02">
  <g id="Grupo_1" data-name="Grupo 1" transform="translate(-332.225 -870.923)">
    <path id="Caminho_1" data-name="Caminho 1" d="M332.225,1007.455h7.606l3.948,11.409,3.949-11.409h7.49l-8.245,20.466h-6.5Z" transform="translate(0 -94.729)" fill="#2e2f7b"/>
    <path id="Caminho_2" data-name="Caminho 2" d="M410.062,1007.455h17.331v5.574H416.739v2.061h9.928V1020h-9.928v2.206h10.8v5.574H410.062Z" transform="translate(-54.004 -94.729)" fill="#2e2f7b"/>
    <path id="Caminho_3" data-name="Caminho 3" d="M473.109,1007.456h9.928c3.6,0,5.893.9,7.316,2.323a6.38,6.38,0,0,1,1.858,4.819v.058a6.573,6.573,0,0,1-4.006,6.213l4.731,6.909h-7.75l-3.832-5.806H479.9v5.806h-6.793Zm9.725,9.667c1.626,0,2.613-.726,2.613-1.974v-.058c0-1.306-1.016-1.945-2.585-1.945H479.9v3.977Z" transform="translate(-97.747 -94.729)" fill="#2e2f7b"/>
    <path id="Caminho_4" data-name="Caminho 4" d="M537.484,1016.688v-.058c0-6.067,4.79-10.6,11.205-10.6a12.589,12.589,0,0,1,8.505,3.077l-3.8,4.587a6.818,6.818,0,0,0-4.5-1.771,4.534,4.534,0,0,0-4.557,4.79v.058a4.633,4.633,0,0,0,4.849,4.848,4.493,4.493,0,0,0,2.322-.465v-2.032h-3.483v-4.355h9.841v9.406a14.078,14.078,0,0,1-8.971,3.047c-6.328,0-11.408-4.237-11.408-10.537" transform="translate(-142.412 -93.742)" fill="#2e2f7b"/>
    <rect id="Retângulo_1" data-name="Retângulo 1" width="6.793" height="20.321" transform="translate(416.902 912.727)" fill="#2e2f7b"/>
    <path id="Caminho_5" data-name="Caminho 5" d="M638.739,1007.455H645.1l7.229,8.97v-8.97h6.735v20.321h-6.038l-7.548-9.376v9.376h-6.735Z" transform="translate(-212.664 -94.729)" fill="#2e2f7b"/>
    <rect id="Retângulo_2" data-name="Retângulo 2" width="6.793" height="20.321" transform="translate(448.776 912.727)" fill="#2e2f7b"/>
    <path id="Caminho_6" data-name="Caminho 6" d="M746.566,1006.982H753.3l8.564,20.466h-7.374l-1.073-2.729h-7.112l-1.045,2.729H738Zm5.167,12.918-1.858-4.935-1.858,4.935Z" transform="translate(-281.535 -94.4)" fill="#2e2f7b"/>
    <path id="Caminho_7" data-name="Caminho 7" d="M676.078,922.567l-.005-.038a49.088,49.088,0,0,1,3.738,18.8H630.783Z" transform="translate(-207.144 -35.805)" fill="#b21922"/>
    <path id="Caminho_8" data-name="Caminho 8" d="M670.375,898.875a42.9,42.9,0,0,0-9.3-13.9l-30.3,30.3Z" transform="translate(-207.143 -9.752)" fill="#d0681c"/>
    <path id="Caminho_9" data-name="Caminho 9" d="M657.27,879.036a37.5,37.5,0,0,0-12.156-8.113l-14.332,34.6Z" transform="translate(-207.144)" fill="#fae000"/>
    <path id="Caminho_10" data-name="Caminho 10" d="M643.313,879.5a32.782,32.782,0,0,0-12.53-2.486v32.736Z" transform="translate(-207.144 -4.227)" fill="#c0ce2e"/>
    <path id="Caminho_11" data-name="Caminho 11" d="M605.98,890.5a28.644,28.644,0,0,0-10.945,2.183l10.945,26.424Z" transform="translate(-182.342 -13.583)" fill="#56a3dd"/>
    <path id="Caminho_12" data-name="Caminho 12" d="M590.718,931.572l-9.571-23.105a25.049,25.049,0,0,0-8.11,5.424Z" transform="translate(-167.079 -26.049)" fill="#221f54"/>
    <path id="Caminho_13" data-name="Caminho 13" d="M455.593,1101.162l-.45-1.1h-2.082l-.45,1.1h-1.1l2.11-4.959h1l2.11,4.959ZM454.1,1097.5l-.654,1.6h1.308Z" transform="translate(-82.76 -156.303)" fill="#2e2f7b"/>
    <path id="Caminho_14" data-name="Caminho 14" d="M479.493,1101.277h-.957l-1.99-4.958h1.2l1.287,3.468,1.287-3.468h1.168Z" transform="translate(-100.132 -156.383)" fill="#2e2f7b"/>
    <rect id="Retângulo_3" data-name="Retângulo 3" width="1.083" height="4.924" transform="translate(382.16 939.935)" fill="#2e2f7b"/>
    <path id="Caminho_15" data-name="Caminho 15" d="M507.218,1099.751a2.3,2.3,0,0,1-.538.78,2.562,2.562,0,0,1-.83.521,2.867,2.867,0,0,1-1.058.19h-1.92v-4.924h1.92a2.914,2.914,0,0,1,1.058.186,2.5,2.5,0,0,1,.83.517,2.3,2.3,0,0,1,.538.777,2.442,2.442,0,0,1,.19.967v.014a2.469,2.469,0,0,1-.19.971m-.942-.971a1.6,1.6,0,0,0-.109-.6,1.419,1.419,0,0,0-.3-.471,1.356,1.356,0,0,0-.468-.306,1.637,1.637,0,0,0-.605-.109h-.837v2.968h.837a1.678,1.678,0,0,0,.605-.106,1.3,1.3,0,0,0,.468-.3,1.428,1.428,0,0,0,.3-.464,1.567,1.567,0,0,0,.109-.6Z" transform="translate(-118.397 -156.383)" fill="#2e2f7b"/>
    <path id="Caminho_16" data-name="Caminho 16" d="M523.542,1101.162l-.45-1.1H521.01l-.45,1.1h-1.1l2.11-4.959h1l2.11,4.959Zm-1.491-3.658-.654,1.6h1.308Z" transform="translate(-129.904 -156.303)" fill="#2e2f7b"/>
    <path id="Caminho_17" data-name="Caminho 17" d="M549.326,1101.242l-2.384-3.13v3.13h-1.069v-4.924h1l2.307,3.032v-3.032h1.069v4.924Z" transform="translate(-148.232 -156.383)" fill="#2e2f7b"/>
    <path id="Caminho_18" data-name="Caminho 18" d="M568.344,1099.577a2.517,2.517,0,0,1-1.375,1.358,2.853,2.853,0,0,1-2.1,0,2.6,2.6,0,0,1-.827-.542,2.43,2.43,0,0,1-.542-.8,2.529,2.529,0,0,1-.193-.988v-.014a2.49,2.49,0,0,1,.2-.988,2.52,2.52,0,0,1,1.375-1.358,2.848,2.848,0,0,1,2.1,0,2.6,2.6,0,0,1,.826.542,2.414,2.414,0,0,1,.542.8,2.535,2.535,0,0,1,.193.988v.014a2.488,2.488,0,0,1-.2.988m-.935-.988a1.648,1.648,0,0,0-.109-.6,1.5,1.5,0,0,0-.31-.492,1.48,1.48,0,0,0-.474-.334,1.443,1.443,0,0,0-.6-.123,1.479,1.479,0,0,0-.6.119,1.384,1.384,0,0,0-.464.331,1.547,1.547,0,0,0-.3.489,1.605,1.605,0,0,0-.109.594v.014a1.636,1.636,0,0,0,.109.6,1.477,1.477,0,0,0,.31.492,1.494,1.494,0,0,0,.471.334,1.434,1.434,0,0,0,.6.123,1.484,1.484,0,0,0,.6-.119,1.376,1.376,0,0,0,.468-.331,1.574,1.574,0,0,0,.3-.489,1.613,1.613,0,0,0,.109-.594Z" transform="translate(-160.329 -156.191)" fill="#2e2f7b"/>
    <path id="Caminho_19" data-name="Caminho 19" d="M593.114,1100.277a1.339,1.339,0,0,1-.37.478,1.673,1.673,0,0,1-.567.3,2.465,2.465,0,0,1-.731.1,3.267,3.267,0,0,1-1.1-.193,2.928,2.928,0,0,1-.985-.594l.64-.767a3.209,3.209,0,0,0,.693.436,1.861,1.861,0,0,0,.777.162.941.941,0,0,0,.524-.123.387.387,0,0,0,.186-.341v-.014a.429.429,0,0,0-.039-.186.394.394,0,0,0-.148-.151,1.54,1.54,0,0,0-.3-.141c-.13-.047-.3-.1-.5-.148a6.109,6.109,0,0,1-.677-.2,1.93,1.93,0,0,1-.515-.278,1.117,1.117,0,0,1-.328-.411,1.424,1.424,0,0,1-.116-.612v-.015a1.425,1.425,0,0,1,.125-.608,1.385,1.385,0,0,1,.353-.468,1.582,1.582,0,0,1,.542-.3,2.183,2.183,0,0,1,.7-.106,2.939,2.939,0,0,1,1,.162,2.893,2.893,0,0,1,.834.464l-.563.816a3.546,3.546,0,0,0-.647-.355,1.652,1.652,0,0,0-.633-.131.767.767,0,0,0-.475.123.375.375,0,0,0-.158.306v.014a.447.447,0,0,0,.046.208.414.414,0,0,0,.166.158,1.539,1.539,0,0,0,.328.134q.208.063.525.148a5.1,5.1,0,0,1,.667.221,1.877,1.877,0,0,1,.493.3,1.129,1.129,0,0,1,.3.4,1.378,1.378,0,0,1,.1.556v.014a1.521,1.521,0,0,1-.133.65" transform="translate(-178.402 -156.223)" fill="#2e2f7b"/>
    <path id="Caminho_20" data-name="Caminho 20" d="M605.14,1101.242v-4.924h3.706v.964h-2.637v1h2.321v.964h-2.321v1.034h2.673v.964Z" transform="translate(-189.353 -156.383)" fill="#2e2f7b"/>
    <path id="Caminho_21" data-name="Caminho 21" d="M624.417,1100.074a1.844,1.844,0,0,1-.433.693,1.761,1.761,0,0,1-.682.415,2.734,2.734,0,0,1-.893.137,1.952,1.952,0,0,1-2.131-2.188v-2.813h1.083v2.785a1.3,1.3,0,0,0,.281.911,1.007,1.007,0,0,0,.78.306,1.026,1.026,0,0,0,.781-.3,1.24,1.24,0,0,0,.281-.886v-2.82h1.083v2.778a2.859,2.859,0,0,1-.151.977" transform="translate(-199.856 -156.383)" fill="#2e2f7b"/>
    <path id="Caminho_22" data-name="Caminho 22" d="M646.22,1097.317v3.925h-1.083v-3.925h-1.5v-1h4.08v1Z" transform="translate(-216.064 -156.383)" fill="#2e2f7b"/>
    <path id="Caminho_23" data-name="Caminho 23" d="M664,1099.577a2.516,2.516,0,0,1-1.375,1.358,2.718,2.718,0,0,1-1.052.2,2.688,2.688,0,0,1-1.048-.2,2.594,2.594,0,0,1-.826-.542,2.42,2.42,0,0,1-.541-.8,2.524,2.524,0,0,1-.193-.988v-.014a2.5,2.5,0,0,1,.2-.988,2.52,2.52,0,0,1,1.375-1.358,2.712,2.712,0,0,1,1.051-.2,2.684,2.684,0,0,1,1.048.2,2.6,2.6,0,0,1,.827.542,2.422,2.422,0,0,1,.541.8,2.524,2.524,0,0,1,.193.988v.014a2.493,2.493,0,0,1-.2.988m-.935-.988a1.641,1.641,0,0,0-.109-.6,1.477,1.477,0,0,0-.784-.826,1.441,1.441,0,0,0-.6-.123,1.483,1.483,0,0,0-.6.119,1.391,1.391,0,0,0-.464.331,1.558,1.558,0,0,0-.3.489,1.612,1.612,0,0,0-.109.594v.014a1.642,1.642,0,0,0,.109.6,1.484,1.484,0,0,0,.781.826,1.436,1.436,0,0,0,.6.123,1.481,1.481,0,0,0,.6-.119,1.372,1.372,0,0,0,.468-.331,1.554,1.554,0,0,0,.3-.489,1.606,1.606,0,0,0,.109-.594Z" transform="translate(-226.695 -156.191)" fill="#2e2f7b"/>
    <path id="Caminho_24" data-name="Caminho 24" d="M683.054,1101.242v-3.214l-1.386,2.1h-.028l-1.372-2.082v3.193H679.2v-4.924h1.167l1.294,2.082,1.294-2.082h1.168v4.924Z" transform="translate(-240.736 -156.383)" fill="#2e2f7b"/>
  </g>
</svg>
